{"title":"Robocop 2014 R6 HC Subs WEBRip XviD MP3-RARBG","uid":9861119,"size":926946274,"categoryP":"video","categoryS":"movies","magnet":"?xt=urn:btih:db7e77d9137858d201eade98d334a5b420ca80fb&amp;dn=Robocop+2014+R6+HC+Subs+WEBRip+XviD+MP3-RARBG&amp;tr=udp%3A%2F%2Ftracker.openbittorrent.com%3A80&amp;tr=udp%3A%2F%2Fopen.demonii.com%3A1337&amp;tr=udp%3A%2F%2Ftracker.coppersurfer.tk%3A6969&amp;tr=udp%3A%2F%2Fexodus.desync.com%3A6969","seeders":1,"leechers":0,"uploader":".BONE.","files":1,"time":1396299549,"description":"In 2028 Detroit, when Alex Murphy - a loving husband, father and good cop - is critically injured in the line of duty, the multinational conglomerate OmniCorp sees their chance for a part-man, part-robot police officer.\n &lt;a href=&quot;\nhttp://imdb.com/title/tt1234721/&quot; rel=&quot;nofollow&quot; target=&quot;_NEW&quot;&gt;\nhttp://imdb.com/title/tt1234721/&lt;/a&gt;\n\nNotes:\nHardcoded chinese subtitles.\nGreetz to everyone\n\n\nFormat : AVI\nFormat/Info : Audio Video Interleave\nFile size : 884 MiB\nDuration : 1h 48mn\nOverall bit rate : 1 141 Kbps\nMovie name : Downloaded from RARBG.COM\nWriting application : Lavf55.36.100\nComment : Downloaded from RARBG.COM\n\nVideo\nID : 0\nFormat : MPEG-4 Visual\nFormat profile : Simple@L5\nFormat settings, BVOP : No\nFormat settings, QPel : No\nFormat settings, GMC : No warppoints\nFormat settings, Matrix : Default (H.263)\nCodec ID : XVID\nCodec ID/Hint : XviD\nDuration : 1h 48mn\nBit rate : 1 000 Kbps\nWidth : 640 pixels\nHeight : 272 pixels\nDisplay aspect ratio : 2.35:1\nFrame rate : 29.970 fps\nColor space : YUV\nChroma subsampling : 4:2:0\nBit depth : 8 bits\nScan type : Progressive\nCompression mode : Lossy\nBits/(Pixel*Frame) : 0.192\nStream size : 775 MiB (88%)\nWriting library : Lavc55.55.104\n\nAudio\nID : 1\nFormat : MPEG Audio\nFormat version : Version 1\nFormat profile : Layer 3\nMode : Joint stereo\nMode extension : MS Stereo\nCodec ID : 55\nCodec ID/Hint : MP3\nDuration : 1h 48mn\nBit rate mode : Constant\nBit rate : 128 Kbps\nChannel(s) : 2 channels\nSampling rate : 44.1 KHz\nCompression mode : Lossy\nStream size : 99.2 MiB (11%)\nAlignment : Aligned on interleaves\nInterleave, duration : 26 ms (0.78 video frame)\n &lt;a href=&quot;\nhttp://someimage.com/fqNyRyJ&quot; rel=&quot;nofollow&quot; target=&quot;_NEW&quot;&gt;\nhttp://someimage.com/fqNyRyJ&lt;/a&gt; &lt;a href=&quot;\nhttp://t1.someimage.com/6Ivn8cA.jpg&quot; rel=&quot;nofollow&quot; target=&quot;_NEW&quot;&gt;\nhttp://t1.someimage.com/6Ivn8cA.jpg&lt;/a&gt; &lt;a href=&quot;\nhttp://t1.someimage.com/T9HFHCo.jpg&quot; rel=&quot;nofollow&quot; target=&quot;_NEW&quot;&gt;\nhttp://t1.someimage.com/T9HFHCo.jpg&lt;/a&gt; &lt;a href=&quot;\nhttp://t1.someimage.com/O0gdUxg.jpg&quot; rel=&quot;nofollow&quot; target=&quot;_NEW&quot;&gt;\nhttp://t1.someimage.com/O0gdUxg.jpg&lt;/a&gt; &lt;a href=&quot;\nhttp://t1.someimage.com/LVWtcXa.jpg&quot; rel=&quot;nofollow&quot; target=&quot;_NEW&quot;&gt;\nhttp://t1.someimage.com/LVWtcXa.jpg&lt;/a&gt;","torrent":{"xt":"urn:btih:db7e77d9137858d201eade98d334a5b420ca80fb","amp;dn":"Robocop+2014+R6+HC+Subs+WEBRip+XviD+MP3-RARBG","amp;tr":["udp%3A%2F%2Ftracker.openbittorrent.com%3A80","udp%3A%2F%2Fopen.demonii.com%3A1337","udp%3A%2F%2Ftracker.coppersurfer.tk%3A6969","udp%3A%2F%2Fexodus.desync.com%3A6969"],"infoHash":"db7e77d9137858d201eade98d334a5b420ca80fb","infoHashBuffer":{"type":"Buffer","data":[219,126,119,217,19,120,88,210,1,234,222,152,211,52,165,180,32,202,128,251]},"announce":[],"urlList":[]}}